#!OML:ASF E:/inclinewalkrobotboard/Project1/Captureday1/Session1/subject1.ASF
:FULLY-SPECIFIED
:DEGREES
126
root 0 0 0 0.46059180578658054 -3.1665576802805466 1.2546942194388577
lowerback 11.504492949195807 0.6333212918930532 -0.5299494918397044
upperback -2.7783562244272755 0.8002863911222233 0.017180260904527733
thorax -9.4497983625035 0.3572491333810125 0.1970219220249908
lowerneck -9.800879075388991 0.2614743496999652 2.375262944611586
upperneck 18.552460657414297 1.1305945941727433 -5.503716308882586
head 7.447327527196908 0.2726103992662039 -2.0898516219567145
rclavicle 2.125219643157656E-16 -7.381690148724619E-16
rhumerus 2.5816198279507816 3.438331791413228 -59.565600436216556
rradius 56.19608080070353
rwrist 17.539615712641627
rhand -28.400360677807114 -27.544533244264183
rfingers 7.125019999999986
rthumb -1.7678561989278911 -57.78338151462658
lclavicle -8.352816639494425E-16 -1.7497770370230735E-16
lhumerus 3.073452230334695 -9.5997451472762 59.03658251320239
lradius 55.77380658596434
lwrist -11.271979368184564
lhand -38.861181654261806 -35.990114028751165
lfingers 7.125019999999983
lthumb -11.802267826183858 -6.297735855527677
rfemur -25.28125497082501 1.794647087988685 20.02796498045467
rtibia 47.71267030314876
rfoot -7.332355087837513 -9.857930492123835
rtoes -1.4369155192500944
lfemur -14.869567408472907 -0.3235690825949681 -17.19003190583049
ltibia 42.44793585188277
lfoot -6.066856670566772 -4.729695442970961
ltoes -6.222194266016252
127
root 0 0 0 0.4606187652333693 -3.165543323773837 1.256485984148276
lowerback 11.504612097891208 0.6326631047639204 -0.5317184608289506
upperback -2.7784838288676843 0.7991688714497281 0.017064914929160624
thorax -9.450040110723007 0.35674728929684957 0.19812136316974227
lowerneck -9.800406064897718 0.2617250628465029 2.375391545623296
upperneck 18.55262424663181 1.131033212831516 -5.504118336477772
head 7.447330082252751 0.27280814164621003 -2.0899531788239063
rclavicle 2.1266066473309736E-16 -7.381208078077152E-16
rhumerus 2.5816708782353217 3.438304479347405 -59.565455080096946
rradius 56.19616351572833
rwrist 17.539710866636526
rhand -28.40037861492124 -27.544693039438986
rfingers 7.125019999999986
rthumb -1.7678987065949023 -57.783563643713016
lclavicle -8.353053065087022E-16 -1.7504635758734423E-16
lhumerus 3.072381759423301 -9.599397773920744 59.03731758579979
lradius 55.77288574503163
lwrist -11.271527945786874
lhand -38.8608064059416 -35.98845450957382
lfingers 7.125019999999983
lthumb -11.801916998171944 -6.296052679948069
rfemur -25.30996635637524 1.7865412332355017 20.01356163746769
rtibia 47.75024985169518
rfoot -7.316557191743078 -9.860670156665178
rtoes -1.436394169624952
lfemur -14.870822988455481 -0.316397004169901 -17.185296407121495
ltibia 42.49860462866079
lfoot -6.049084281537533 -4.748606334509373
ltoes -6.23146504668931
128
root 0 0 0 0.4607390456993725 -3.1636669653810605 1.2596725243839961
lowerback 11.504780376575138 0.6314554753627373 -0.5349193786797407
upperback -2.778736094203022 0.7971372385713112 0.016876126868374808
thorax -9.45046242110029 0.3558360521226026 0.20010394725790392
lowerneck -9.799585010661147 0.2622214566105905 2.375632453958022
upperneck 18.55272467215976 1.1318431691283526 -5.5048043029904115
head 7.447261314072737 0.2731781354321827 -2.090117970157566
rclavicle 2.1268148662015894E-16 -7.38062385527269E-16
rhumerus 2.5816865712579755 3.438250929885939 -59.565395648638436
rradius 56.19616690128014
rwrist 17.539782915695177
rhand -28.400381561190972 -27.544748802044378
rfingers 7.125019999999986
rthumb -1.7679159372694473 -57.78362505083315
lclavicle -8.352801806810869E-16 -1.749449236456648E-16
lhumerus 3.07316562282708 -9.59959989708188 59.03677526014107
lradius 55.773478121286516
lwrist -11.271917591021209
lhand -38.861069479287025 -35.989782972293376
lfingers 7.125019999999983
lthumb -11.802162753621458 -6.297416872306748
rfemur -25.34866875096628 1.7764462361063527 19.99440070038867
rtibia 47.79201892653165
rfoot -7.301186169923967 -9.866357430363372
rtoes -1.4402626852192166
lfemur -14.878641570040942 -0.3086826921843332 -17.177766593523558
ltibia 42.55331772596688
lfoot -6.029714113028609 -4.767192578139449
ltoes -6.240077463876795
129
root 0 0 0 0.4606749044016638 -3.166637131183818 1.2538031994616492
lowerback 11.504207690072962 0.6334396552587156 -0.52943504436297
upperback -2.778174159479038 0.8005468880451649 0.01737049802879076
thorax -9.44941403245123 0.3573718538334917 0.19674871469064725
lowerneck -9.801536462328846 0.2613899564094382 2.3750055239592633
upperneck 18.55168442716564 1.1302470901256334 -5.503072878935376
head 7.447141071968458 0.27248680883716014 -2.089628308089657
rclavicle 2.1277301544006552E-16 -7.367814261061887E-16
rhumerus 2.5809561402539174 3.4379380289354504 -59.566008843835455
rradius 56.19529743522779
rwrist 17.539121539861288
rhand -28.400118715244396 -27.543273277907492
rfingers 7.125019999999986
rthumb -1.7675199537480593 -57.78170192096496
lclavicle -8.336717193057606E-16 -1.7350542185753964E-16
lhumerus 3.0746539631269165 -9.600124256367623 59.03598578840773
lradius 55.77434236774747
lwrist -11.272663508357763
lhand -38.86149791319514 -35.99173310485446
lfingers 7.125019999999983
lthumb -11.802476361237387 -6.300066187676322
rfemur -25.243646368511317 1.8049502430948403 20.046896105300544
rtibia 47.66745401627709
rfoot -7.349343845839802 -9.85329311830276
rtoes -1.4347192858282274
lfemur -14.86026271290961 -0.337867463912489 -17.20155818536421
ltibia 42.34956970646432
lfoot -6.099262923578146 -4.694966790419645
ltoes -6.204938223661847
